<?xml version="1.0" encoding="UTF-8"?>
<svg id="Layer_1" data-name="Layer 1" xmlns="http://www.w3.org/2000/svg" viewBox="0 0 774.83 149.5">
  <defs>
    <style>
      .cls-1 {
        fill: none;
        stroke: #231f20;
        stroke-miterlimit: 10;
        stroke-width: 3px;
      }

      .cls-2 {
        fill: #231f20;
      }

      .cls-3 {
        isolation: isolate;
      }
    </style>
  </defs>
  <g class="cls-3">
    <g class="cls-3">
      <path class="cls-2" d="m52.41,89.73l-26.41-48.62h-.51v71.47h-13.58V17.37h17.39l28.95,55.22h.51l29.2-55.22h16.63v95.21h-13.58V41.11h-.51l-26.15,48.62h-11.93Z"/>
    </g>
    <g class="cls-3">
      <path class="cls-1" d="m52.41,89.73l-26.41-48.62h-.51v71.47h-13.58V17.37h17.39l28.95,55.22h.51l29.2-55.22h16.63v95.21h-13.58V41.11h-.51l-26.15,48.62h-11.93Z"/>
    </g>
    <g class="cls-3">
      <path class="cls-2" d="m118.67,79.83c0-20.06,14.73-34.79,34.79-34.79s34.91,14.73,34.91,34.79-14.85,34.79-34.91,34.79-34.79-14.85-34.79-34.79Zm55.73-.13c0-13.2-8.63-22.6-20.95-22.6s-20.95,9.39-20.95,22.6,8.76,22.6,20.95,22.6,20.95-9.52,20.95-22.6Z"/>
      <path class="cls-2" d="m197.76,79.83c0-20.06,14.73-34.79,34.79-34.79s34.91,14.73,34.91,34.79-14.85,34.79-34.91,34.79-34.79-14.85-34.79-34.79Zm55.73-.13c0-13.2-8.63-22.6-20.95-22.6s-20.95,9.39-20.95,22.6,8.76,22.6,20.95,22.6,20.95-9.52,20.95-22.6Z"/>
      <path class="cls-2" d="m310.36,45.04c9.65,0,18.92,4.06,22.6,10.79h.51c-.25-1.4-.38-2.92-.38-6.47v-31.99h13.58v95.21h-12.57v-4.19c0-2.92.13-4.95.25-6.6h-.38c-4.32,8.25-13.46,12.82-24.12,12.82-19.55,0-32.75-14.47-32.75-34.79s13.58-34.79,33.26-34.79Zm23.23,34.66c0-13.2-8.89-22.6-21.33-22.6s-21.33,9.39-21.33,22.6,9.14,22.6,21.33,22.6,21.33-9.52,21.33-22.6Z"/>
      <path class="cls-2" d="m371.42,129.72h34.15v-17.77c0-2.54.13-4.57.25-6.22h-.51c-1.27,3.05-6.09,7.74-16.63,7.74-14.09,0-24.12-11.04-24.12-26.03v-40.37h13.71v40.24c0,8.25,5.71,13.84,13.71,13.84s13.58-5.59,13.58-13.84v-40.24h13.71v94.71h-47.86v-12.06Z"/>
      <path class="cls-2" d="m492.66,53.17l15.87,9.52c10.16,6.09,17.14,13.71,17.14,25.52,0,15.87-11.93,26.41-29.83,26.41-19.04,0-28.95-12.06-30.98-27.55l12.31-4.19c1.14,9.27,6.98,19.17,19.17,19.17,9.65,0,15.11-5.71,15.11-13.46,0-5.33-2.67-10.28-10.41-14.73l-14.6-8.63c-9.9-5.71-18.15-11.55-18.15-25.39s10.28-24.5,27.42-24.5c16.12,0,25.52,8.25,28.95,22.09l-12.06,4.06c-2.79-9.65-9.01-13.84-17.39-13.84s-13.08,4.7-13.08,11.43,3.55,10.16,10.54,14.09Z"/>
      <path class="cls-2" d="m536.07,79.83c0-20.06,14.73-34.79,34.79-34.79s34.91,14.73,34.91,34.79-14.85,34.79-34.91,34.79-34.79-14.85-34.79-34.79Zm55.73-.13c0-13.2-8.63-22.6-20.95-22.6s-20.95,9.39-20.95,22.6,8.76,22.6,20.95,22.6,20.95-9.52,20.95-22.6Z"/>
      <path class="cls-2" d="m619.86,112.58V47.07h13.71v53.45h26.53v-53.45h13.71v65.51h-53.96Z"/>
    </g>
    <g class="cls-3">
      <path class="cls-1" d="m118.67,79.83c0-20.06,14.73-34.79,34.79-34.79s34.91,14.73,34.91,34.79-14.85,34.79-34.91,34.79-34.79-14.85-34.79-34.79Zm55.73-.13c0-13.2-8.63-22.6-20.95-22.6s-20.95,9.39-20.95,22.6,8.76,22.6,20.95,22.6,20.95-9.52,20.95-22.6Z"/>
      <path class="cls-1" d="m197.76,79.83c0-20.06,14.73-34.79,34.79-34.79s34.91,14.73,34.91,34.79-14.85,34.79-34.91,34.79-34.79-14.85-34.79-34.79Zm55.73-.13c0-13.2-8.63-22.6-20.95-22.6s-20.95,9.39-20.95,22.6,8.76,22.6,20.95,22.6,20.95-9.52,20.95-22.6Z"/>
      <path class="cls-1" d="m310.36,45.04c9.65,0,18.92,4.06,22.6,10.79h.51c-.25-1.4-.38-2.92-.38-6.47v-31.99h13.58v95.21h-12.57v-4.19c0-2.92.13-4.95.25-6.6h-.38c-4.32,8.25-13.46,12.82-24.12,12.82-19.55,0-32.75-14.47-32.75-34.79s13.58-34.79,33.26-34.79Zm23.23,34.66c0-13.2-8.89-22.6-21.33-22.6s-21.33,9.39-21.33,22.6,9.14,22.6,21.33,22.6,21.33-9.52,21.33-22.6Z"/>
      <path class="cls-1" d="m371.42,129.72h34.15v-17.77c0-2.54.13-4.57.25-6.22h-.51c-1.27,3.05-6.09,7.74-16.63,7.74-14.09,0-24.12-11.04-24.12-26.03v-40.37h13.71v40.24c0,8.25,5.71,13.84,13.71,13.84s13.58-5.59,13.58-13.84v-40.24h13.71v94.71h-47.86v-12.06Z"/>
      <path class="cls-1" d="m492.66,53.17l15.87,9.52c10.16,6.09,17.14,13.71,17.14,25.52,0,15.87-11.93,26.41-29.83,26.41-19.04,0-28.95-12.06-30.98-27.55l12.31-4.19c1.14,9.27,6.98,19.17,19.17,19.17,9.65,0,15.11-5.71,15.11-13.46,0-5.33-2.67-10.28-10.41-14.73l-14.6-8.63c-9.9-5.71-18.15-11.55-18.15-25.39s10.28-24.5,27.42-24.5c16.12,0,25.52,8.25,28.95,22.09l-12.06,4.06c-2.79-9.65-9.01-13.84-17.39-13.84s-13.08,4.7-13.08,11.43,3.55,10.16,10.54,14.09Z"/>
      <path class="cls-1" d="m536.07,79.83c0-20.06,14.73-34.79,34.79-34.79s34.91,14.73,34.91,34.79-14.85,34.79-34.91,34.79-34.79-14.85-34.79-34.79Zm55.73-.13c0-13.2-8.63-22.6-20.95-22.6s-20.95,9.39-20.95,22.6,8.76,22.6,20.95,22.6,20.95-9.52,20.95-22.6Z"/>
      <path class="cls-1" d="m619.86,112.58V47.07h13.71v53.45h26.53v-53.45h13.71v65.51h-53.96Z"/>
    </g>
    <g class="cls-3">
      <path class="cls-2" d="m686.75,17.37h13.71v83.15h16.38v12.06h-30.09V17.37Z"/>
    </g>
    <g class="cls-3">
      <path class="cls-1" d="m686.75,17.37h13.71v83.15h16.38v12.06h-30.09V17.37Z"/>
    </g>
    <g class="cls-3">
      <path class="cls-2" d="m745.78,72.34l8.38,4.06c8,3.81,14.09,8.76,14.09,18.79,0,11.3-8.89,19.42-23.23,19.42s-21.33-8-23.61-16.88l10.54-5.84c1.14,5.46,5.71,11.17,13.46,11.17,5.46,0,9.27-2.79,9.27-8,0-3.68-2.54-6.09-8.63-8.89l-7.49-3.55c-8-3.68-14.22-8.25-14.22-19.04,0-10.16,9.01-18.54,21.2-18.54s19.3,6.6,22.72,14.73l-9.78,5.59c-2.16-5.08-6.47-9.01-12.7-9.01-5.08,0-8.63,2.79-8.63,7.11,0,3.94,2.54,6.09,8.63,8.89Z"/>
    </g>
    <g class="cls-3">
      <path class="cls-1" d="m745.78,72.34l8.38,4.06c8,3.81,14.09,8.76,14.09,18.79,0,11.3-8.89,19.42-23.23,19.42s-21.33-8-23.61-16.88l10.54-5.84c1.14,5.46,5.71,11.17,13.46,11.17,5.46,0,9.27-2.79,9.27-8,0-3.68-2.54-6.09-8.63-8.89l-7.49-3.55c-8-3.68-14.22-8.25-14.22-19.04,0-10.16,9.01-18.54,21.2-18.54s19.3,6.6,22.72,14.73l-9.78,5.59c-2.16-5.08-6.47-9.01-12.7-9.01-5.08,0-8.63,2.79-8.63,7.11,0,3.94,2.54,6.09,8.63,8.89Z"/>
    </g>
  </g>
</svg>